<?xml version="1.0" standalone="no"?>
<!DOCTYPE svg PUBLIC "-//W3C//DTD SVG 20010904//EN"
 "http://www.w3.org/TR/2001/REC-SVG-20010904/DTD/svg10.dtd">
<svg version="1.0" xmlns="http://www.w3.org/2000/svg"
 width="3400.000000pt" height="1267.000000pt" viewBox="0 0 3400.000000 1267.000000"
 preserveAspectRatio="xMidYMid meet">
<metadata>
Created by potrace 1.16, written by Peter Selinger 2001-2019
</metadata>
<g transform="translate(0.000000,1267.000000) scale(0.100000,-0.100000)"
fill="#000000" stroke="none">
<path d="M16621 10656 c-106 -21 -121 -25 -121 -36 0 -6 -8 -10 -18 -10 -31 0
-146 -42 -159 -57 -6 -8 -73 -30 -147 -49 -137 -34 -177 -50 -269 -108 -72
-45 -173 -93 -230 -108 -31 -8 -46 -17 -43 -25 3 -7 1 -13 -5 -13 -5 0 -9 -7
-7 -16 2 -10 -9 -24 -23 -33 -80 -50 -113 -77 -183 -155 -43 -47 -86 -86 -96
-86 -10 0 -24 -16 -35 -39 -19 -43 -45 -62 -45 -33 0 9 -21 -14 -46 -51 -25
-38 -54 -77 -65 -88 -10 -10 -19 -23 -19 -27 0 -5 -21 -31 -46 -58 -26 -27
-68 -81 -94 -119 -56 -83 -201 -340 -199 -352 3 -12 -37 -94 -43 -88 -3 3 -17
-30 -32 -72 -43 -121 -48 -133 -56 -133 -16 0 -19 -74 -4 -105 12 -26 13 -40
3 -76 -38 -149 -43 -281 -30 -736 1 -22 6 -33 16 -33 12 0 15 -16 15 -81 0
-44 5 -89 10 -100 10 -18 7 -49 -15 -140 -5 -21 -1 -32 21 -53 16 -14 23 -26
16 -26 -24 0 -11 -52 38 -149 28 -54 50 -107 50 -116 0 -11 5 -15 14 -12 11 4
21 -12 37 -61 19 -61 56 -139 70 -152 3 -3 18 -23 34 -45 16 -22 41 -53 56
-70 14 -16 29 -42 33 -56 3 -15 40 -64 81 -110 41 -45 75 -89 75 -97 0 -18
127 -158 165 -182 17 -10 57 -45 90 -77 33 -32 86 -71 118 -87 31 -15 57 -32
57 -37 0 -32 442 -295 550 -327 19 -6 73 -13 120 -15 73 -5 82 -4 61 7 -17 10
-20 15 -10 18 23 8 47 -3 52 -22 3 -12 21 -23 48 -30 24 -7 58 -18 74 -25 72
-32 358 -65 567 -65 159 0 202 5 176 21 -9 6 -3 9 17 9 23 0 27 -3 15 -10 -25
-16 25 -12 67 5 45 19 52 19 27 -1 -18 -14 -18 -15 6 -9 14 4 41 14 60 22 19
9 66 20 105 24 79 8 157 29 137 36 -16 6 31 33 57 33 84 1 516 219 516 261 0
8 9 13 20 12 34 -3 180 84 229 137 26 28 52 50 58 50 14 0 207 185 280 269 38
44 53 68 45 73 -6 4 -9 8 -7 10 66 48 81 63 86 86 4 15 13 34 20 42 7 8 12 17
11 20 -1 3 20 37 46 77 92 138 163 305 264 623 49 152 56 187 58 265 2 50 4
95 5 100 7 29 -1 175 -10 175 -5 0 -10 -7 -10 -15 0 -8 -4 -15 -8 -15 -15 0
-72 -91 -72 -115 0 -14 -9 -56 -19 -95 -11 -38 -22 -95 -26 -127 -10 -84 -60
-242 -117 -368 -27 -60 -51 -117 -52 -125 -7 -47 -74 -174 -119 -226 -21 -24
-36 -48 -32 -54 3 -6 -1 -13 -10 -16 -9 -4 -14 -13 -11 -20 3 -9 -2 -14 -14
-14 -14 0 -39 -29 -86 -100 -42 -63 -114 -149 -200 -238 -74 -77 -134 -144
-134 -148 0 -5 -23 -25 -51 -44 -27 -19 -79 -57 -114 -84 -37 -27 -76 -49 -92
-50 -19 -1 -44 -18 -80 -53 -29 -29 -58 -53 -64 -53 -6 0 -25 -12 -43 -26 -26
-23 -31 -25 -34 -10 -4 21 -18 17 -131 -35 -46 -21 -96 -39 -112 -39 -27 0
-47 -15 -35 -28 4 -3 24 -1 46 5 49 13 52 7 7 -12 -19 -8 -74 -15 -123 -16
-49 -1 -112 -8 -140 -15 -28 -7 -71 -15 -95 -18 -24 -3 -60 -9 -79 -12 -93
-16 -169 -23 -210 -19 -112 11 -173 13 -151 7 14 -4 26 -13 29 -20 6 -19 -47
-14 -98 9 -25 11 -67 22 -95 24 -27 3 -70 7 -94 11 -26 4 -42 3 -39 -2 3 -5
-12 -10 -35 -11 -24 -2 -44 2 -49 9 -4 8 -30 13 -70 12 -34 -1 -54 2 -43 6 15
5 11 10 -25 22 -111 38 -147 46 -172 41 -14 -3 -34 0 -45 6 -15 10 -14 10 8 5
15 -3 30 -1 33 4 7 12 -92 52 -132 53 -30 1 -82 16 -67 19 6 1 -8 8 -30 15
-39 13 -39 14 -10 15 28 1 26 3 -17 18 -26 9 -60 29 -75 43 -15 15 -66 44
-112 65 -61 28 -79 40 -65 44 23 8 7 18 -28 18 -19 0 -46 15 -84 48 -31 27
-76 64 -100 83 -25 18 -51 46 -60 62 -16 31 -34 38 -34 14 0 -25 -60 24 -60
49 -1 14 -19 33 -52 56 -28 19 -54 42 -56 50 -4 11 2 9 18 -5 23 -20 23 -20
16 0 -7 18 -5 18 17 -3 27 -26 37 -28 37 -7 0 9 -10 19 -23 24 -13 5 -52 41
-86 80 -35 39 -70 71 -78 71 -8 0 -11 5 -8 11 4 5 -11 27 -34 48 -32 29 -39
42 -35 62 5 23 5 23 -10 5 -12 -15 -16 -16 -18 -5 0 8 -2 19 -2 24 -1 6 -10
24 -22 40 -11 17 -33 55 -48 85 -16 30 -38 65 -49 78 -11 12 -15 22 -9 22 18
0 14 41 -6 75 -12 19 -17 44 -15 70 2 22 -3 63 -11 90 l-14 50 -1 -42 c-1 -24
-4 -43 -9 -43 -13 0 -30 74 -25 110 3 23 1 31 -5 22 -7 -11 -10 -9 -15 7 -2
11 0 22 7 24 6 2 -3 20 -22 42 -27 30 -32 43 -27 64 11 46 10 66 -2 64 -7 -2
-15 7 -17 20 -13 57 -34 195 -34 217 -1 40 -6 63 -21 89 -10 18 -11 40 -6 85
5 34 9 77 9 98 1 20 5 34 10 31 4 -3 5 37 1 90 -6 73 -4 106 8 144 8 26 15 64
16 83 0 19 5 36 10 38 6 2 11 12 11 22 0 10 8 38 19 62 12 28 20 78 23 143 7
119 24 195 45 195 10 0 13 -6 8 -17 -7 -20 -45 -155 -45 -162 0 -2 8 4 19 13
10 9 22 36 25 58 4 23 17 58 29 77 12 20 22 50 23 68 0 21 10 41 26 56 15 14
27 39 32 66 7 45 25 80 62 121 13 14 59 81 103 149 45 68 81 118 81 112 0 -27
19 2 25 39 8 50 25 62 25 18 1 -30 2 -31 12 -13 6 11 36 44 67 74 53 51 55 54
32 60 -20 6 -16 10 38 35 41 20 58 33 51 41 -5 6 -5 16 1 25 8 11 12 12 16 3
8 -21 17 -15 37 22 14 25 26 35 43 35 23 0 112 57 113 72 0 10 88 126 101 133
5 4 12 -1 15 -9 3 -9 17 -16 30 -16 18 0 29 11 49 51 33 65 97 134 137 148 28
10 29 9 17 -7 -8 -9 -40 -46 -73 -82 -46 -50 -56 -66 -43 -68 9 -2 17 -8 17
-12 0 -15 122 41 157 71 17 15 39 32 49 37 9 5 15 14 13 20 -2 7 -31 -5 -69
-29 -56 -35 -61 -37 -40 -14 26 28 81 66 114 78 15 6 17 4 12 -18 -7 -26 3
-32 21 -14 6 6 26 13 43 15 17 2 50 15 74 29 32 18 57 25 98 25 30 0 57 2 60
5 3 3 -7 19 -23 35 -47 47 -34 79 34 80 14 0 17 -5 12 -20 -5 -14 -2 -20 10
-20 12 0 15 5 10 21 -7 20 -5 21 25 15 18 -3 37 -6 41 -6 5 0 2 -11 -7 -25
-17 -26 -12 -45 12 -45 8 0 13 4 10 9 -3 4 7 8 22 9 43 1 92 13 92 23 0 5 18
9 39 9 22 0 43 5 47 11 3 6 25 19 48 29 35 15 55 16 141 8 145 -12 229 -26
233 -37 2 -5 10 -7 18 -4 8 3 14 1 14 -4 0 -5 32 -9 70 -10 39 -1 70 2 70 7 0
13 -28 20 -83 21 l-52 1 35 15 c42 18 186 15 199 -5 4 -8 53 -18 122 -26 110
-13 169 -30 169 -48 0 -19 -31 -18 -77 3 -47 21 -133 35 -117 19 5 -5 52 -23
104 -40 52 -18 141 -52 197 -76 56 -24 107 -44 112 -44 15 0 14 17 -1 23 -7 3
-3 6 9 6 30 1 134 -39 128 -49 -5 -9 94 -80 112 -80 6 0 13 5 15 12 3 8 27 -1
71 -25 37 -20 67 -34 67 -31 0 3 -11 19 -25 36 -14 16 -25 27 -25 23 0 -3 -18
4 -40 16 -22 13 -40 27 -40 31 0 5 -16 16 -35 23 -19 8 -49 28 -67 43 -18 16
-40 30 -48 31 -8 1 -35 3 -60 5 -55 5 -114 27 -87 33 24 6 21 20 -5 27 -34 9
-50 7 -43 -4 9 -15 -11 -12 -24 4 -8 10 -9 15 -1 18 6 2 -24 18 -67 37 -84 36
-228 71 -419 101 -66 10 -140 24 -165 29 -77 18 -523 23 -608 7z"/>
<path d="M18350 10124 c0 -10 50 -54 60 -54 6 0 28 -16 50 -36 45 -41 75 -42
75 -2 -1 21 3 25 15 18 26 -14 105 -100 92 -100 -37 0 18 -60 58 -63 11 -1 52
-37 92 -81 40 -43 74 -74 76 -68 2 7 -10 24 -27 38 -17 14 -31 31 -31 37 0 7
-19 29 -42 49 -24 21 -38 38 -31 38 14 0 75 -57 91 -85 10 -17 13 -18 21 -5
12 18 1 32 -56 72 -24 16 -50 27 -57 25 -8 -3 -21 8 -32 29 -10 19 -25 34 -32
34 -15 0 -72 54 -88 83 -6 10 -28 24 -50 32 -32 12 -34 14 -14 15 20 0 22 2
10 10 -20 13 -57 13 -65 -1 -4 -6 1 -20 11 -33 11 -12 8 -10 -6 4 -29 29 -120
62 -120 44z"/>
<path d="M16855 9585 c-140 -16 -193 -30 -278 -72 -74 -37 -86 -48 -168 -162
-55 -78 -55 -78 -86 -237 -70 -354 -73 -393 -78 -934 -2 -285 0 -512 5 -535 5
-22 14 -76 20 -121 22 -172 102 -325 237 -455 57 -54 84 -72 163 -104 94 -39
97 -39 248 -43 176 -4 289 8 393 43 106 36 248 109 292 150 57 53 108 170 118
270 4 44 13 98 19 120 8 26 11 87 8 178 -4 133 -5 139 -34 180 -41 58 -82 71
-214 69 -90 -2 -110 -6 -146 -27 -23 -13 -45 -32 -48 -42 -4 -10 -6 -103 -5
-208 2 -213 -3 -235 -63 -293 -31 -29 -44 -34 -125 -44 -120 -15 -169 -6 -242
43 -82 55 -113 112 -137 249 -22 120 -23 345 -6 870 15 470 48 611 160 685 78
51 227 41 309 -21 81 -62 117 -148 138 -336 8 -68 37 -116 85 -140 42 -21 189
-25 254 -6 79 22 79 21 73 213 -4 168 -5 171 -51 319 -25 81 -46 154 -46 161
0 14 -66 103 -95 127 -48 40 -115 67 -205 82 -53 9 -111 21 -130 26 -45 13
-226 10 -365 -5z"/>
<path d="M3330 4739 c-608 -42 -1090 -393 -1265 -922 -18 -56 -40 -144 -49
-196 -21 -124 -21 -369 -1 -487 18 -104 71 -267 113 -351 129 -253 349 -476
602 -607 321 -167 629 -198 1011 -101 369 94 573 233 556 381 -6 58 -60 130
-195 262 -105 101 -107 102 -154 102 -39 0 -71 -11 -159 -55 -61 -31 -152 -70
-202 -87 -81 -28 -105 -32 -202 -32 -203 0 -353 62 -495 204 -97 97 -139 163
-183 287 -29 81 -31 98 -32 223 l0 135 48 125 c26 69 50 142 54 164 6 41 64
135 110 178 32 30 108 77 170 107 23 10 47 28 54 39 10 15 16 18 29 10 12 -8
30 -1 75 25 50 30 62 33 75 23 10 -9 49 -14 110 -15 117 -1 200 -11 200 -22 0
-4 18 -13 39 -19 22 -6 79 -39 128 -74 111 -80 124 -86 168 -86 31 0 49 12
138 93 56 51 108 107 116 123 8 16 31 48 53 72 43 47 58 79 58 122 0 23 -15
40 -82 97 -151 127 -302 214 -433 248 -90 23 -133 20 -169 -12 -17 -16 -23
-19 -13 -7 27 32 21 42 -30 49 -94 12 -130 12 -243 4z m120 -209 c0 -7 14 -8
38 -4 l37 6 -22 -21 c-40 -38 -22 -54 33 -29 24 11 28 10 42 -10 19 -29 64
-30 77 0 6 12 16 24 24 26 11 4 13 -2 8 -26 -6 -29 -3 -32 51 -63 31 -17 94
-60 139 -95 45 -35 86 -64 91 -64 19 0 42 37 36 56 -7 18 -7 18 13 1 11 -9 23
-15 26 -12 4 3 3 -1 -3 -7 -12 -15 -13 -45 -2 -50 5 -1 12 -15 16 -30 5 -21 3
-28 -8 -28 -8 0 -16 -7 -20 -15 -10 -28 -27 -16 -24 18 3 30 1 32 -27 32 -17
0 -43 8 -58 18 -31 20 -44 16 -57 -19 -11 -27 -22 -30 -39 -10 -18 21 -4 44
25 38 19 -3 23 -1 18 12 -8 22 -76 61 -149 86 -79 27 -103 26 -111 -5 -8 -32
2 -59 20 -52 9 4 12 -2 8 -18 -3 -18 2 -25 25 -33 24 -8 25 -11 10 -17 -13 -5
-26 0 -46 19 -37 35 -99 34 -117 -2 -9 -18 -13 -20 -17 -8 -4 9 5 28 18 45 17
19 25 41 25 65 0 30 -5 38 -27 47 -14 5 -39 7 -54 4 -31 -7 -79 -57 -79 -82 0
-14 -3 -13 -20 2 -20 19 -20 19 12 52 38 39 32 50 -21 34 -22 -6 -58 -9 -80
-5 -37 6 -41 4 -41 -14 0 -31 -18 -37 -26 -8 -5 22 -10 24 -37 20 -18 -4 -43
-14 -57 -24 -16 -11 -37 -16 -57 -13 -67 10 -166 -42 -298 -156 -188 -163
-371 -434 -364 -540 1 -20 -5 -51 -15 -69 -15 -28 -16 -57 -13 -210 2 -97 8
-195 14 -217 14 -54 83 -224 94 -231 5 -3 9 -16 9 -30 0 -14 9 -43 21 -65 25
-50 153 -185 207 -219 22 -14 43 -34 48 -45 13 -28 196 -118 329 -161 99 -33
123 -36 248 -40 113 -4 153 -1 221 15 89 21 270 90 324 123 26 16 35 18 47 8
24 -20 17 -46 -19 -78 -89 -78 -393 -142 -611 -129 -307 19 -609 182 -795 429
-158 210 -231 449 -217 716 11 207 37 306 103 396 24 32 63 95 86 140 33 63
62 100 130 167 48 47 88 90 88 96 0 6 8 9 18 7 23 -6 108 50 129 86 9 15 22
26 28 24 16 -7 247 70 281 93 15 10 38 16 50 15 13 -2 32 2 43 8 14 7 21 7 21
0 0 -21 47 -9 75 20 35 37 52 38 65 5 5 -14 14 -25 19 -25 14 0 33 38 26 50
-3 6 -1 10 4 10 6 0 11 -5 11 -10z"/>
<path d="M5845 4739 c-583 -79 -1057 -517 -1181 -1089 -26 -120 -26 -420 0
-540 40 -187 111 -358 205 -502 67 -101 199 -241 221 -235 13 3 16 0 13 -13
-10 -36 183 -182 260 -195 34 -7 37 -6 37 17 0 13 -18 48 -40 78 -22 29 -38
56 -35 58 7 8 45 -29 45 -44 0 -7 26 -35 57 -63 l57 -51 -31 0 c-18 0 -35 -4
-38 -10 -6 -9 8 -14 20 -7 2 1 10 -5 17 -14 15 -19 48 -32 48 -19 0 5 -7 15
-15 24 -13 13 -13 15 4 21 22 7 19 25 -11 64 -10 13 -18 36 -18 51 0 23 4 27
20 23 22 -6 25 0 10 27 -9 17 -6 20 27 25 85 14 84 20 -21 72 -46 23 -100 56
-120 74 -32 27 -38 30 -53 18 -14 -12 -15 -12 -9 0 12 19 -152 183 -176 175
-15 -5 -17 -2 -9 18 7 19 1 36 -30 88 -68 113 -125 266 -150 405 -13 74 -27
375 -16 375 4 0 7 8 7 18 0 60 65 244 112 317 73 113 104 152 176 227 47 49
89 88 95 88 5 0 46 22 91 49 199 119 365 180 517 188 88 5 98 8 109 28 7 13 9
28 6 34 -10 15 6 14 29 -2 12 -10 14 -16 7 -21 -23 -14 -13 -33 13 -28 14 2
55 -6 92 -18 42 -14 79 -20 103 -17 28 4 49 -1 81 -20 l43 -24 20 20 c19 20
19 22 2 57 -14 30 -15 39 -4 45 18 11 25 1 33 -48 6 -36 4 -44 -14 -55 -30
-19 -26 -38 8 -38 31 0 77 43 106 100 9 17 20 30 25 30 14 0 14 -1 -30 -79
-22 -38 -37 -77 -34 -85 7 -18 134 -96 157 -96 9 0 17 -5 17 -10 0 -6 30 -41
68 -79 37 -38 76 -85 87 -105 16 -29 25 -36 48 -36 24 0 27 -3 18 -14 -9 -10
1 -38 43 -122 29 -60 64 -139 76 -177 12 -37 25 -65 29 -62 11 6 25 -149 24
-258 -4 -349 -215 -726 -517 -922 -45 -29 -99 -61 -121 -72 -57 -29 -184 -70
-241 -79 -27 -3 -71 -18 -97 -31 -45 -22 -50 -23 -66 -9 -23 21 -30 20 -75
-10 -33 -23 -36 -24 -27 -6 16 30 15 32 -25 32 -30 0 -37 -4 -47 -29 -10 -26
-14 -28 -51 -23 -23 2 -46 9 -52 14 -8 6 -15 -1 -23 -23 -13 -38 -6 -53 18
-40 10 6 23 6 32 0 11 -7 8 -14 -19 -37 -33 -28 -40 -42 -21 -42 11 0 82 -71
80 -80 0 -3 75 -5 167 -5 187 1 271 14 439 70 473 158 806 538 900 1030 26
138 23 398 -6 535 -43 201 -102 344 -207 502 -77 116 -219 263 -324 337 -85
60 -226 134 -239 126 -5 -3 -11 1 -14 9 -8 20 -156 75 -262 97 -106 23 -346
33 -450 18z"/>
<path d="M13975 4739 c-280 -18 -540 -104 -765 -254 -98 -65 -274 -240 -337
-335 -103 -153 -170 -313 -208 -495 -25 -119 -31 -366 -11 -493 85 -555 517
-996 1101 -1124 38 -8 126 -13 240 -12 158 0 195 4 302 27 302 67 515 165 606
279 23 29 31 51 35 92 6 76 -21 119 -171 273 l-120 123 -52 0 c-44 0 -72 -10
-176 -61 -194 -96 -252 -112 -389 -113 -133 0 -207 16 -316 70 -182 89 -317
256 -376 459 -18 63 -22 105 -22 195 0 112 1 118 46 237 25 67 51 144 57 171
16 78 87 171 174 228 39 27 93 58 120 71 26 12 47 27 47 33 0 7 8 9 20 5 13
-4 40 6 81 30 54 31 64 34 78 22 10 -9 45 -14 101 -15 134 -3 208 -12 214 -28
3 -8 12 -14 21 -14 25 0 72 -27 163 -93 67 -48 92 -61 130 -65 l48 -4 103 98
c56 53 111 113 121 133 10 20 30 47 45 61 37 34 55 72 55 114 0 30 -8 42 -66
93 -178 157 -412 273 -551 273 -34 0 -46 -5 -59 -25 -9 -14 -21 -25 -27 -25
-6 0 0 11 13 25 l23 24 -24 9 c-38 14 -154 19 -274 11z m115 -210 c0 -8 12 -9
38 -4 l37 7 -24 -26 c-32 -34 -21 -43 29 -26 38 13 42 12 56 -8 17 -24 64 -30
64 -8 0 7 7 19 16 27 13 10 17 10 24 -1 5 -8 5 -21 0 -29 -6 -11 9 -25 64 -59
39 -24 101 -68 138 -98 37 -30 71 -54 76 -54 17 0 44 39 38 55 -4 13 -2 14 14
5 15 -8 18 -17 13 -40 -3 -18 -1 -30 5 -30 5 0 13 -11 16 -24 5 -19 0 -32 -19
-50 -27 -27 -27 -27 -29 19 -1 27 -5 30 -33 31 -18 1 -44 9 -59 19 -26 17 -28
17 -41 -1 -7 -10 -13 -24 -13 -31 0 -20 -28 -16 -39 6 -13 23 -5 31 27 31 82
0 -91 102 -199 117 -33 5 -37 3 -42 -23 -6 -33 1 -54 18 -54 7 0 12 -8 11 -17
0 -9 10 -22 24 -29 21 -11 22 -14 7 -20 -12 -4 -24 2 -38 20 -17 21 -29 26
-66 26 -36 0 -46 -4 -50 -20 -7 -25 -23 -26 -23 -2 0 10 11 28 25 40 42 36 28
95 -25 107 -41 9 -80 -13 -106 -59 -22 -38 -22 -38 -34 -16 -10 20 -8 26 22
57 l33 36 -40 -8 c-22 -5 -64 -8 -92 -7 -47 1 -53 -1 -53 -18 0 -26 -20 -26
-27 0 -4 15 -11 18 -37 13 -38 -7 -66 -21 -66 -32 0 -5 -20 -6 -44 -4 -81 10
-196 -59 -350 -206 -178 -172 -334 -421 -313 -502 3 -10 -3 -37 -14 -59 -16
-34 -19 -62 -19 -208 0 -140 3 -172 15 -182 9 -7 13 -21 10 -31 -7 -20 79
-235 93 -232 5 1 7 -9 4 -22 -9 -51 74 -169 183 -257 33 -28 81 -69 107 -93
52 -47 205 -119 346 -162 78 -23 104 -26 252 -27 l165 0 110 37 c61 21 148 56
194 78 73 36 85 39 98 26 13 -13 13 -18 -1 -45 -52 -100 -468 -189 -716 -153
-300 44 -589 227 -756 477 -142 213 -199 445 -175 715 15 163 45 271 93 330
19 24 52 77 73 116 53 103 92 154 156 207 31 26 62 60 69 76 7 17 17 27 25 24
22 -9 83 26 119 67 18 22 41 39 52 39 10 0 41 9 69 20 27 10 75 26 106 34 30
9 71 26 90 39 29 20 45 23 103 20 65 -2 70 -1 94 27 33 37 41 37 68 3 25 -31
35 -27 38 11 1 25 16 38 16 15z"/>
<path d="M20090 4739 c-290 -19 -571 -117 -791 -276 -99 -71 -250 -225 -313
-321 -95 -144 -158 -290 -198 -462 -29 -127 -36 -395 -13 -531 80 -481 430
-889 905 -1057 151 -53 237 -66 425 -67 197 0 309 18 522 86 357 114 503 268
401 425 -17 27 -85 102 -150 167 l-119 117 -49 0 c-39 0 -74 -13 -189 -69
-209 -102 -332 -126 -491 -98 -113 20 -186 49 -275 108 -193 129 -310 340
-322 580 l-6 106 57 164 c31 90 56 175 57 189 0 14 22 54 48 90 49 68 139 138
239 184 30 15 52 31 52 41 0 12 3 13 18 4 16 -10 29 -6 80 24 48 28 63 33 71
23 7 -9 42 -13 103 -14 139 -2 216 -12 222 -28 3 -8 14 -14 25 -14 11 0 71
-35 133 -77 90 -61 121 -77 158 -81 l45 -4 110 108 c61 60 118 123 128 139 9
17 33 49 52 73 27 33 35 53 35 82 0 37 -5 44 -77 106 -185 157 -403 264 -539
264 -33 0 -47 -5 -62 -25 -11 -14 -23 -25 -28 -25 -4 0 3 11 16 25 l23 24 -24
9 c-38 14 -155 19 -279 11z m120 -210 c0 -8 12 -9 38 -4 l37 7 -24 -26 c-31
-33 -21 -44 25 -27 32 12 38 11 58 -8 29 -27 59 -27 71 1 6 12 16 24 24 26 11
4 13 -2 8 -25 -5 -28 -2 -32 57 -66 35 -20 98 -63 140 -97 41 -33 80 -60 84
-60 17 0 44 39 39 54 -5 13 -3 14 13 4 14 -9 17 -19 13 -40 -3 -16 -1 -28 5
-28 5 0 13 -11 16 -24 5 -19 0 -32 -19 -50 -27 -27 -35 -21 -32 24 2 22 -2 25
-30 26 -18 1 -44 9 -59 19 -26 17 -28 17 -41 -1 -7 -10 -13 -24 -13 -31 0 -17
-25 -17 -40 2 -16 19 -4 35 26 35 84 0 -88 102 -197 117 -32 5 -37 3 -43 -20
-7 -31 2 -60 18 -54 7 3 12 -4 12 -16 -1 -13 9 -26 24 -33 21 -11 22 -14 7
-20 -12 -4 -25 2 -42 20 -32 35 -95 37 -118 4 -14 -21 -16 -21 -16 -4 -1 10
10 31 24 48 39 46 28 91 -25 103 -41 9 -80 -12 -105 -57 -16 -29 -24 -35 -33
-26 -18 18 -15 29 21 66 l32 35 -40 -8 c-22 -5 -64 -8 -92 -7 -47 1 -53 -1
-53 -18 0 -26 -20 -26 -27 0 -4 15 -11 18 -37 13 -39 -7 -66 -21 -66 -33 0 -6
-19 -7 -44 -4 -88 13 -224 -73 -392 -248 -159 -166 -267 -341 -270 -439 -1
-25 -9 -60 -18 -77 -22 -42 -23 -367 -2 -395 8 -10 12 -26 10 -35 -5 -21 80
-228 93 -225 6 1 8 -9 5 -22 -10 -55 97 -199 211 -282 29 -21 63 -51 76 -66
43 -50 250 -141 404 -177 64 -15 113 -18 222 -16 131 2 147 5 245 38 82 28
225 89 270 115 3 2 14 -3 24 -10 18 -14 18 -15 0 -46 -48 -81 -337 -161 -579
-161 -343 2 -691 188 -884 474 -149 221 -209 458 -183 728 16 176 41 265 92
330 23 29 57 82 75 118 46 89 89 147 162 214 34 32 65 66 68 76 4 11 12 17 20
13 20 -7 100 42 127 77 12 17 31 30 42 30 11 0 43 9 71 20 27 10 75 26 106 34
30 9 71 26 90 39 29 19 45 23 101 21 63 -3 69 -1 95 26 34 37 50 38 65 5 19
-43 43 -30 41 23 -1 6 3 12 8 12 5 0 9 -5 9 -11z"/>
<path d="M24740 4744 c-153 -20 -340 -73 -454 -131 -403 -201 -678 -555 -763
-981 -26 -131 -24 -394 5 -529 56 -262 170 -485 339 -664 44 -47 72 -69 84
-66 12 3 15 0 12 -13 -10 -39 219 -200 285 -200 19 0 22 4 17 23 -4 12 -21 45
-40 72 -50 77 -51 79 -26 63 12 -7 24 -22 27 -33 4 -11 32 -44 63 -72 l56 -53
-32 0 c-17 0 -35 -4 -38 -10 -6 -9 8 -14 20 -7 2 1 10 -5 17 -14 7 -9 21 -19
31 -22 22 -8 23 19 0 31 -14 9 -14 10 5 16 27 9 27 12 -3 61 -31 49 -32 75 -5
75 23 0 24 4 10 30 -9 17 -6 20 27 25 85 14 84 20 -21 72 -46 23 -100 56 -120
74 -20 17 -39 29 -42 27 -2 -3 -43 34 -90 83 -59 60 -91 86 -102 82 -12 -5
-14 -1 -9 18 5 17 -5 44 -37 99 -60 103 -114 245 -137 356 -19 94 -40 414 -27
414 4 0 10 17 13 38 13 75 48 179 88 256 75 147 224 320 317 369 25 13 81 45
125 70 96 56 262 123 354 143 36 7 96 14 133 14 58 0 69 3 78 21 7 11 9 27 6
35 -6 17 -1 18 25 4 15 -9 17 -15 9 -30 -14 -26 -13 -28 14 -23 14 3 57 -5 96
-17 46 -14 85 -20 107 -17 27 5 44 0 75 -19 l41 -26 20 21 c20 20 20 22 5 55
-14 29 -15 36 -3 46 16 14 22 4 31 -46 5 -32 2 -43 -15 -58 -28 -26 -26 -36 7
-36 31 0 79 44 106 98 9 17 21 32 26 32 14 0 13 -3 -25 -73 -19 -35 -35 -72
-35 -83 0 -21 123 -104 154 -104 9 0 16 -4 16 -9 0 -6 21 -29 46 -53 26 -24
66 -71 91 -105 35 -49 50 -63 70 -63 19 0 23 -3 15 -12 -7 -10 5 -44 44 -123
30 -60 64 -140 75 -177 12 -38 24 -68 29 -68 7 0 11 -29 25 -200 13 -144 -37
-355 -125 -530 -116 -231 -310 -422 -535 -526 -74 -34 -207 -74 -249 -74 -12
0 -41 -11 -64 -25 -42 -24 -45 -24 -72 -8 -26 15 -30 15 -63 -6 -35 -21 -35
-21 -30 -1 5 17 1 20 -31 20 -32 0 -38 -4 -47 -28 -8 -25 -15 -29 -42 -27 -18
1 -42 7 -54 13 -18 10 -22 8 -27 -11 -12 -45 -8 -54 24 -49 18 2 30 0 30 -7 0
-6 -13 -20 -30 -33 -31 -23 -38 -38 -18 -38 12 0 81 -70 79 -80 -3 -13 263 -9
359 5 580 86 1020 494 1142 1058 31 147 32 427 0 574 -89 413 -340 750 -690
928 -39 20 -76 34 -81 31 -5 -3 -11 0 -14 8 -8 20 -156 75 -262 97 -88 19
-338 33 -415 23z"/>
<path d="M8234 4713 c-20 -28 -43 -152 -255 -1393 -86 -501 -189 -1150 -189
-1185 1 -34 15 -56 47 -73 33 -18 420 -16 453 2 16 9 30 11 42 5 28 -15 46 0
67 54 32 88 70 395 49 408 -9 6 1 48 30 127 2 7 -4 12 -17 12 -26 0 -27 16 -2
29 25 14 41 62 41 126 0 56 52 334 71 381 11 25 13 27 17 9 17 -72 254 -544
440 -875 143 -255 175 -304 208 -319 38 -17 129 -4 159 23 24 21 605 1124 605
1147 0 42 15 -31 59 -286 55 -319 144 -766 161 -811 6 -16 17 -32 23 -36 15
-9 296 -10 440 -2 103 7 106 8 113 33 10 39 6 95 -27 331 -45 322 -109 690
-149 855 -10 44 -24 148 -30 232 -12 163 -44 389 -86 598 -72 360 -124 589
-138 611 -15 22 -23 24 -89 24 -63 0 -76 -3 -94 -22 -27 -29 -113 -181 -246
-433 -58 -110 -157 -292 -222 -405 -99 -175 -224 -414 -361 -692 -18 -36 -37
-69 -41 -71 -5 -3 -49 69 -98 161 -256 482 -701 1278 -783 1402 l-37 55 -70 3
c-67 3 -72 1 -91 -25z m93 -603 c26 -28 30 -29 60 -18 30 11 34 10 77 -30 25
-23 50 -42 56 -42 6 0 6 -7 -1 -19 -10 -15 -5 -31 27 -91 21 -40 51 -86 67
-102 15 -17 27 -34 27 -39 0 -5 24 -53 53 -107 29 -53 59 -112 66 -129 7 -18
19 -33 27 -33 16 0 53 -61 93 -155 34 -79 353 -661 375 -683 12 -12 17 -9 41
22 15 20 33 36 41 36 50 0 169 193 162 262 -3 27 1 33 22 38 21 5 51 56 193
330 231 447 343 640 435 749 l29 34 21 -55 c44 -118 172 -782 188 -981 4 -46
12 -81 19 -83 7 -3 10 -16 7 -30 -5 -26 7 -31 37 -15 15 8 17 5 17 -25 0 -18
-3 -29 -7 -23 -4 7 -12 5 -23 -6 -20 -20 -20 -29 0 -59 10 -16 12 -26 5 -31
-15 -9 -14 -41 3 -78 9 -19 16 -78 19 -142 5 -126 37 -236 62 -215 27 22 -16
-67 -45 -95 -32 -31 -29 -36 -51 73 -7 34 -16 62 -19 62 -4 0 -4 27 -2 59 5
70 -13 186 -34 219 -8 12 -13 26 -10 30 3 5 -9 73 -25 153 -17 79 -33 160 -35
179 -3 19 -17 114 -30 210 -14 96 -33 213 -43 260 -11 47 -27 140 -37 208 -16
112 -19 123 -37 118 -16 -4 -18 -1 -12 17 4 12 9 36 12 52 l6 30 -28 -25 c-29
-26 -98 -161 -93 -183 2 -7 -29 -62 -69 -122 -68 -105 -153 -256 -292 -517
l-62 -118 35 0 c49 0 46 -21 -6 -47 -125 -61 -203 -188 -151 -245 16 -18 15
-18 -16 -16 -24 2 -36 -2 -42 -14 -5 -10 -13 -26 -19 -35 -5 -10 -21 -39 -34
-64 -33 -61 -74 -109 -94 -109 -20 0 -74 59 -88 96 -6 16 -16 28 -23 26 -7 -1
-9 2 -6 9 9 14 -24 89 -40 89 -6 0 -16 -5 -23 -12 -9 -9 -12 -8 -12 8 0 11 5
25 10 30 12 12 3 44 -11 44 -5 0 -9 7 -9 15 0 9 -11 21 -25 27 -14 6 -25 18
-25 27 -1 14 -2 14 -14 -2 -8 -10 -24 -16 -39 -15 -19 2 -23 5 -16 15 6 6 17
9 25 6 20 -7 44 15 44 41 0 13 -11 33 -24 45 -14 13 -22 29 -19 36 2 8 -7 21
-20 30 -14 9 -36 41 -48 71 -29 65 -44 66 -78 6 -25 -47 -46 -61 -64 -43 -8 8
-5 19 12 42 12 17 20 37 17 46 -6 14 -9 13 -31 -1 -23 -15 -25 -15 -35 4 -9
17 -6 20 22 28 24 7 41 5 62 -5 24 -12 30 -13 37 -1 17 26 5 52 -28 60 -37 10
-36 8 -23 42 8 21 5 33 -13 60 -12 19 -42 71 -66 115 l-44 80 -42 -6 c-54 -7
-68 11 -20 27 44 15 46 39 6 102 -34 53 -63 72 -96 64 -18 -5 -29 1 -49 26
l-25 32 29 21 c39 27 38 55 -5 94 -19 17 -35 36 -35 41 0 5 -12 5 -29 -1 -26
-9 -29 -15 -35 -78 -3 -38 -15 -110 -25 -162 -11 -52 -22 -114 -25 -139 -3
-25 -12 -67 -21 -95 -10 -31 -18 -103 -22 -185 -4 -113 -10 -148 -34 -217 -34
-100 -55 -242 -40 -271 8 -15 7 -23 -5 -33 -8 -7 -12 -18 -10 -26 3 -8 -3 -40
-13 -71 -20 -60 -43 -236 -33 -260 2 -8 0 -17 -5 -21 -5 -3 -16 -19 -24 -36
-11 -23 -22 -31 -47 -33 -33 -3 -33 -3 -26 33 6 33 3 40 -22 61 l-29 23 29 -2
c24 -2 31 3 36 23 8 28 -13 60 -39 60 -13 0 -13 2 2 17 13 13 19 14 29 5 16
-16 31 -15 25 2 -3 8 1 36 9 63 20 64 57 311 51 340 -2 13 0 26 5 29 5 3 8 22
7 43 -2 20 2 45 8 55 8 15 7 25 -3 42 -13 20 -12 24 12 53 21 25 25 39 21 66
-4 21 -1 35 7 38 10 4 33 139 35 202 0 11 11 61 25 110 31 116 65 316 73 428
5 80 4 90 -15 110 -19 21 -47 77 -37 77 2 0 17 -14 32 -30z"/>
<path d="M15985 4725 c-186 -40 -381 -174 -496 -341 -42 -62 -94 -176 -114
-254 -20 -72 -26 -267 -9 -278 5 -4 15 -37 21 -74 19 -113 52 -171 161 -278
105 -103 171 -146 461 -299 189 -100 273 -155 349 -229 67 -67 94 -117 100
-189 6 -68 -2 -95 -39 -137 -43 -49 -120 -76 -217 -76 -128 0 -228 33 -419
140 -84 47 -117 60 -150 60 -52 0 -79 -23 -89 -74 -3 -20 -12 -36 -20 -36 -46
0 -144 -199 -144 -294 0 -23 9 -55 20 -73 56 -93 307 -211 550 -258 47 -9 97
-20 112 -24 19 -6 30 -4 42 7 12 12 16 13 16 3 0 -11 31 -12 158 -9 177 6 292
27 327 62 12 12 30 20 43 18 46 -7 97 21 172 93 41 40 89 80 106 88 41 21 94
93 143 198 52 108 71 181 78 299 13 229 -50 391 -222 565 -119 121 -240 199
-524 340 -127 63 -235 115 -239 115 -4 0 -37 30 -73 68 -99 102 -115 191 -47
267 43 50 115 69 232 63 110 -6 180 -32 345 -126 144 -83 193 -91 259 -43 53
39 123 133 166 225 41 86 49 127 36 176 -28 104 -240 219 -530 287 -89 21
-134 25 -305 28 -138 2 -219 -1 -260 -10z m253 -145 c6 -38 22 -52 56 -47 18
2 41 -2 53 -10 21 -14 25 -13 51 15 l28 30 -4 -33 c-3 -28 0 -34 25 -43 15 -5
36 -13 46 -17 14 -6 17 -2 17 24 0 21 4 29 13 25 7 -2 13 -17 12 -32 0 -22 4
-27 25 -27 14 0 30 -5 35 -12 6 -6 56 -36 112 -67 87 -47 107 -54 140 -50 l38
5 -38 -34 c-53 -49 -69 -51 -119 -13 -108 82 -227 125 -405 147 -122 14 -159
8 -218 -37 l-45 -34 6 26 c6 25 6 26 -27 19 -59 -12 -134 -55 -203 -117 -49
-45 -65 -65 -61 -78 4 -12 -1 -22 -13 -29 -30 -16 -59 -191 -43 -268 40 -203
216 -358 688 -606 88 -46 183 -99 210 -117 63 -43 173 -150 173 -170 0 -20 28
-60 42 -60 6 0 8 9 5 20 -3 11 -2 18 2 16 4 -3 13 -1 21 4 9 5 19 5 27 -2 15
-12 18 -32 3 -23 -12 8 -46 -10 -53 -29 -3 -8 1 -42 9 -77 17 -72 12 -111 -36
-264 -17 -55 -34 -121 -37 -147 -4 -31 -11 -48 -19 -48 -8 0 -14 7 -14 15 0 9
-23 -3 -64 -34 -131 -99 -257 -141 -483 -160 -88 -8 -101 -6 -147 14 -61 27
-170 55 -213 55 -21 0 -35 7 -47 24 -8 14 -31 30 -51 37 -19 7 -35 17 -35 21
0 4 -10 8 -23 8 -57 0 -76 56 -26 74 21 7 40 3 94 -23 40 -18 76 -29 87 -25
12 4 30 -5 54 -25 19 -17 46 -31 60 -31 14 0 34 -10 43 -22 17 -20 28 -21 217
-26 l199 -4 84 42 c67 34 100 59 170 132 47 49 91 99 98 111 15 27 16 82 3
108 -8 15 -7 19 5 19 12 0 15 13 15 58 0 73 -23 153 -60 212 -38 59 -140 158
-215 208 -95 63 -284 154 -306 147 -14 -5 -19 -2 -19 12 0 12 -35 39 -113 85
-61 37 -129 74 -150 83 -44 18 -201 176 -218 220 -7 16 -26 56 -42 89 l-29 59
16 123 c17 130 36 193 82 271 16 27 27 54 26 61 -2 7 8 12 25 12 47 1 156 81
146 107 -5 13 -2 13 16 4 32 -17 61 -4 77 35 8 19 19 32 24 29 7 -4 6 -13 0
-26 -12 -21 -8 -22 39 -13 22 5 31 12 31 26 0 15 3 17 19 8 29 -15 66 -13 53
3 -21 26 -24 55 -5 60 37 10 58 2 61 -23z"/>
<path d="M26823 4685 l-33 -26 0 -913 c0 -567 4 -934 10 -967 12 -63 91 -232
151 -321 97 -145 266 -280 439 -354 237 -100 546 -122 813 -58 89 21 112 40
102 82 -7 34 -22 40 -44 20 -8 -7 -5 2 5 20 10 17 21 32 25 32 4 0 13 -19 21
-42 12 -40 16 -43 52 -46 94 -8 283 140 416 325 72 101 153 264 169 341 8 36
11 344 11 966 l0 913 -23 21 c-23 21 -30 22 -271 22 -231 0 -249 -1 -288 -21
l-41 -21 7 -646 c4 -356 7 -703 6 -772 -2 -153 -23 -317 -49 -376 -22 -49
-128 -167 -145 -161 -6 2 -32 -6 -58 -19 -70 -36 -185 -65 -212 -54 -13 4 -61
11 -107 15 -81 7 -87 9 -171 66 -47 33 -94 59 -102 59 -9 0 -16 7 -16 15 0 9
-15 44 -32 78 l-33 62 -5 875 -5 875 -50 14 c-32 8 -131 15 -280 18 l-230 4
-32 -26z m311 -268 c3 -12 6 -359 6 -772 0 -602 3 -760 14 -801 22 -85 77
-174 151 -250 110 -112 293 -221 356 -212 20 3 34 -1 46 -14 13 -15 32 -18
106 -18 75 0 95 4 125 22 28 17 34 19 29 6 -9 -25 18 -30 85 -16 45 9 63 18
70 34 9 19 14 20 37 11 43 -16 137 30 156 77 11 26 19 33 34 29 14 -3 35 9 72
44 111 103 178 232 165 313 -4 25 -2 49 6 63 10 17 12 74 8 237 -3 118 -1 274
3 345 5 72 6 307 4 523 -5 373 -4 393 13 402 27 15 27 14 56 -42 17 -33 22
-54 15 -56 -8 -3 -11 -184 -11 -661 0 -415 -4 -687 -10 -737 -33 -235 -107
-374 -257 -477 -42 -28 -95 -68 -117 -88 -28 -25 -55 -38 -85 -43 -24 -4 -76
-20 -115 -36 -70 -29 -73 -29 -225 -25 -149 4 -154 3 -171 -18 l-18 -22 5 29
c6 28 5 29 -28 23 -19 -3 -41 -8 -50 -12 -12 -4 -29 5 -53 29 -39 39 -46 42
-64 24 -9 -9 -12 -8 -12 4 0 9 -29 35 -65 58 -80 52 -153 123 -205 200 -42 62
-120 215 -120 236 0 6 -7 17 -15 24 -11 9 -14 22 -9 46 4 25 3 34 -7 34 -10 0
-10 3 -1 12 9 9 12 189 12 746 0 681 1 736 17 747 22 16 39 9 47 -18z"/>
<path d="M11451 4671 c-21 -29 -21 -31 -21 -1308 0 -1274 0 -1279 20 -1301 20
-22 26 -22 279 -22 l257 0 27 28 27 28 0 1280 0 1280 -39 22 c-37 21 -50 22
-284 22 l-246 0 -20 -29z m300 -221 c18 -10 19 -26 19 -418 0 -304 3 -411 12
-420 9 -9 9 -12 0 -12 -9 0 -12 -66 -12 -268 0 -195 3 -271 12 -280 9 -9 9
-12 0 -12 -9 0 -12 -88 -12 -365 0 -341 -1 -365 -18 -374 -10 -5 -23 -7 -29
-3 -19 13 -23 194 -23 1070 0 639 -3 878 -12 891 -18 29 15 201 38 201 3 0 14
-5 25 -10z"/>
<path d="M21638 4679 l-28 -21 0 -1289 0 -1289 33 -21 c32 -20 43 -20 764 -17
717 3 733 3 752 23 19 19 20 36 23 230 3 233 -5 283 -49 312 -34 22 -118 22
-159 0 -30 -16 -32 -16 -37 3 -5 19 -15 20 -354 20 l-350 0 -6 392 c-4 215 -7
671 -7 1013 l0 622 -23 21 c-23 21 -30 22 -278 22 -240 -1 -255 -2 -281 -21z
m335 -232 c7 4 8 0 1 -13 -5 -10 -10 -88 -12 -173 l-3 -154 23 6 23 6 -22 -16
c-20 -14 -23 -24 -23 -89 0 -48 4 -74 11 -74 8 0 8 -4 0 -14 -17 -20 -15
-1502 2 -1536 12 -23 19 -25 82 -26 83 -1 126 9 151 37 10 12 28 26 39 31 13
7 9 -2 -12 -24 -18 -19 -33 -37 -33 -41 0 -4 131 -7 290 -7 187 0 290 4 290
10 0 6 7 10 15 10 8 0 15 -4 15 -10 0 -5 15 -10 34 -10 31 0 66 -20 66 -38 -1
-26 -24 -31 -155 -36 -214 -8 -215 -8 -215 -24 0 -8 14 -31 32 -51 27 -30 29
-36 14 -39 -9 -2 -23 1 -31 8 -9 8 -15 8 -20 0 -3 -6 -11 -8 -16 -4 -6 4 -4
13 6 24 15 16 14 18 -10 24 -14 4 -31 3 -38 0 -7 -4 -2 4 11 18 12 13 22 27
22 31 0 3 -68 6 -150 6 -123 0 -152 -2 -157 -14 -8 -22 -23 -18 -23 5 0 19 -7
20 -145 20 l-144 0 -4 163 c-3 89 -5 167 -5 172 0 6 2 144 5 308 3 228 2 302
-8 313 -9 11 -9 18 -1 26 9 9 12 80 12 237 0 197 -2 227 -17 243 -15 17 -15
18 -1 13 15 -6 17 6 17 104 0 61 -4 113 -10 116 -5 4 -5 13 1 25 6 10 10 97
10 199 0 176 0 180 -21 183 -21 3 -21 4 9 36 27 28 33 31 57 22 15 -6 32 -7
38 -3z"/>
<path d="M29697 4682 c-16 -17 -17 -122 -17 -1308 0 -990 3 -1293 12 -1302 9
-9 163 -12 632 -12 l620 0 134 46 c242 82 382 165 532 314 193 192 327 454
375 734 8 49 15 148 15 221 0 220 -38 372 -150 600 -105 213 -235 377 -405
509 -144 113 -243 164 -380 197 -75 18 -123 19 -716 19 -603 0 -637 -1 -652
-18z m794 -212 c19 0 29 5 29 15 0 8 5 15 10 15 6 0 10 -7 10 -15 0 -10 10
-15 33 -15 17 0 109 -9 202 -20 94 -11 191 -20 217 -20 25 0 48 -4 50 -9 2 -5
32 -23 68 -41 36 -18 91 -50 122 -71 67 -46 238 -206 238 -223 0 -7 21 -45 46
-86 78 -125 112 -207 129 -310 9 -52 26 -113 38 -135 20 -37 21 -48 15 -145
-24 -345 -120 -614 -291 -818 -21 -24 -37 -52 -37 -62 0 -12 -10 -21 -30 -25
-16 -3 -68 -31 -115 -62 -61 -39 -107 -61 -162 -75 -87 -22 -148 -50 -156 -72
-3 -8 -14 -12 -25 -9 -10 2 -37 -3 -58 -12 l-39 -16 25 -14 c19 -11 21 -14 8
-15 -10 0 -25 11 -34 25 l-16 25 -326 0 c-289 0 -327 -2 -344 -17 -10 -9 -18
-11 -18 -5 0 6 6 13 13 15 14 6 -52 11 -99 8 l-31 -2 -6 468 c-3 257 -10 487
-15 509 -5 23 -5 48 -1 56 4 8 3 169 -3 359 -11 351 -1 668 22 752 l11 37 208
0 c204 0 208 0 232 23 23 23 25 23 38 5 7 -10 26 -18 42 -18z"/>
<path d="M30034 4294 c4 -57 2 -131 -5 -182 -6 -48 -8 -87 -3 -89 5 -2 8 -365
6 -827 l-2 -825 45 -7 c61 -9 195 4 195 19 0 7 4 5 10 -3 7 -12 40 -16 162
-18 172 -4 218 1 218 25 0 14 2 15 18 1 23 -20 97 -16 122 7 17 15 24 16 50 5
16 -7 38 -9 47 -5 10 4 43 9 73 10 111 5 227 70 351 197 140 144 264 384 284
549 7 53 5 56 -20 73 -15 10 -24 20 -21 23 3 3 13 0 21 -7 30 -25 36 2 32 136
-8 268 -129 608 -260 731 -26 25 -51 43 -53 40 -3 -3 -21 11 -39 31 -33 36
-34 37 -49 17 -15 -20 -15 -20 -10 0 8 31 -47 68 -89 60 -29 -5 -30 -4 -14 8
22 19 22 22 -9 42 -18 12 -29 13 -38 6 -10 -8 -17 -7 -26 5 -20 23 -58 40
-119 53 -33 7 -58 8 -64 2 -5 -5 -19 -3 -35 5 -22 11 -103 14 -406 14 l-379 0
7 -96z m616 -178 c246 -6 322 -25 442 -113 52 -37 143 -152 153 -192 4 -14 16
-38 28 -55 11 -16 22 -39 22 -50 1 -11 7 -22 13 -24 7 -2 12 -27 12 -61 0 -35
12 -97 30 -158 l30 -100 -35 -129 c-62 -227 -168 -411 -292 -509 -99 -77 -107
-79 -455 -83 l-308 -3 0 730 0 730 25 14 c16 8 50 12 88 10 34 -1 145 -5 247
-7z"/>
<path d="M5849 4380 c-77 -13 -203 -50 -228 -67 -19 -12 -21 -17 -10 -24 8 -5
11 -9 6 -9 -4 0 -15 5 -25 11 -27 17 -87 -24 -217 -151 -60 -58 -124 -116
-141 -128 -40 -28 -163 -247 -198 -354 -34 -101 -48 -240 -36 -350 21 -184 65
-359 98 -388 10 -8 25 -36 35 -61 24 -64 104 -159 154 -183 23 -12 42 -27 43
-34 3 -106 350 -262 609 -274 52 -2 86 -1 75 2 -15 6 -13 8 11 12 18 4 34 1
43 -9 10 -10 26 -13 46 -9 17 3 51 8 76 12 25 4 54 11 64 17 11 5 38 10 62 11
30 1 58 12 96 37 29 20 94 62 143 95 303 198 465 475 465 797 0 221 -54 454
-111 472 -15 5 -16 10 -7 24 16 27 -15 82 -82 144 -37 35 -60 65 -65 85 -3 18
-12 32 -19 32 -6 0 -38 27 -71 61 -72 72 -105 93 -210 136 -92 38 -99 39 -91
17 6 -15 4 -15 -11 -3 -10 7 -26 21 -36 31 -12 12 -26 16 -42 12 -16 -4 -25
-2 -25 5 0 23 -70 43 -129 37 -66 -7 -86 -7 -166 -2 -33 3 -81 1 -106 -4z
m371 -286 c0 -6 17 -18 38 -28 120 -57 279 -190 355 -298 137 -192 155 -478
47 -704 -48 -101 -141 -202 -278 -306 l-98 -74 -133 -29 -132 -28 -106 22
c-58 12 -142 35 -186 51 -179 66 -262 150 -379 388 l-82 164 12 125 c20 214
76 346 215 504 93 106 142 149 170 149 21 1 62 14 177 59 49 19 71 21 217 19
107 -2 163 -7 163 -14z"/>
<path d="M24687 4375 c-94 -19 -205 -55 -218 -71 -9 -11 -8 -14 1 -14 8 0 10
-3 7 -6 -4 -4 -13 -1 -22 6 -24 20 -93 -28 -237 -166 -71 -68 -133 -124 -137
-124 -12 0 -143 -231 -169 -300 -36 -92 -52 -180 -52 -292 0 -182 54 -439 105
-494 13 -14 26 -38 30 -52 12 -56 143 -202 180 -202 7 0 16 -12 20 -27 33
-134 499 -306 684 -253 27 8 38 6 52 -6 14 -13 27 -13 85 -4 38 6 80 16 94 22
14 5 43 11 66 12 61 3 290 153 412 271 207 199 294 398 294 675 0 186 -53 422
-103 453 -12 8 -17 18 -13 34 8 30 -24 80 -91 142 -30 27 -55 56 -55 64 0 26
-12 47 -26 47 -7 0 -21 11 -30 25 -37 57 -146 134 -242 171 -69 27 -96 33
-102 24 -5 -8 -15 -4 -35 15 -16 14 -35 23 -42 20 -8 -2 -27 5 -44 17 -37 28
-138 37 -171 16 -19 -12 -27 -12 -48 -1 -31 16 -105 15 -193 -2z m393 -282 c0
-6 9 -14 19 -18 34 -10 190 -113 247 -161 104 -89 194 -235 229 -369 9 -34 15
-101 15 -160 -1 -265 -98 -440 -350 -630 l-96 -71 -131 -28 c-147 -32 -174
-30 -351 20 -239 69 -354 182 -486 478 l-46 104 10 113 c21 239 73 354 252
551 80 88 92 97 138 107 28 6 78 23 113 37 100 43 104 43 274 41 118 -1 163
-5 163 -14z"/>
<path d="M5613 2334 c-3 -8 0 -27 6 -41 8 -18 9 -29 2 -36 -7 -7 -12 -5 -16 6
-3 9 -7 24 -10 32 -7 24 -34 17 -41 -10 -9 -36 4 -95 23 -102 9 -4 28 1 43 9
l27 15 10 -43 c11 -48 3 -55 -31 -29 -17 13 -21 12 -32 -3 -17 -22 -17 -33 -1
-26 8 3 26 -10 41 -31 30 -39 52 -45 61 -15 7 22 13 24 34 11 9 -6 10 -11 2
-15 -21 -13 -11 -26 20 -26 l31 0 -31 35 c-24 27 -30 42 -25 60 5 19 2 25 -9
25 -13 0 -14 6 -6 32 7 25 5 36 -8 50 -9 10 -11 18 -5 18 6 0 14 -4 17 -10 3
-5 9 -10 13 -10 7 0 52 65 52 74 0 3 -16 8 -36 12 -28 5 -39 3 -46 -10 -12
-22 -28 -20 -28 2 0 11 -11 24 -25 30 -21 10 -27 9 -32 -4z"/>
<path d="M24474 2337 c-3 -8 0 -26 6 -42 7 -19 7 -32 1 -38 -7 -7 -12 -5 -16
6 -3 9 -7 24 -10 32 -7 24 -34 17 -41 -11 -4 -14 -1 -43 5 -65 13 -43 40 -52
71 -24 15 14 18 11 27 -30 6 -25 8 -45 6 -45 -2 0 -17 7 -33 15 -25 13 -29 13
-34 -1 -9 -23 -7 -36 3 -29 5 3 22 -10 37 -30 30 -39 53 -45 61 -15 6 22 11
24 32 11 9 -6 10 -11 2 -15 -21 -13 -11 -26 19 -26 38 0 38 9 0 42 -25 21 -29
32 -24 52 4 18 2 26 -6 26 -9 0 -11 10 -6 31 3 19 1 38 -5 46 -15 18 -4 29 15
14 11 -9 18 -5 35 22 27 44 27 44 -10 52 -21 5 -36 2 -48 -9 -23 -21 -31 -20
-31 4 0 10 -9 24 -19 30 -26 13 -31 13 -37 -3z"/>
</g>
</svg>
